<?xml version="1.0" encoding="UTF-8"?>
<svg width="91px" height="91px" viewBox="0 0 91 91" version="1.1" xmlns="http://www.w3.org/2000/svg" xmlns:xlink="http://www.w3.org/1999/xlink">
    <title>default_pic_inter</title>
    <defs>
        <circle id="path-1" cx="30" cy="30" r="30"></circle>
        <linearGradient x1="50%" y1="35.6730229%" x2="50%" y2="100%" id="linearGradient-3">
            <stop stop-color="#FFFFFF" offset="0%"></stop>
            <stop stop-color="#FFFFFF" stop-opacity="0.158486187" offset="100%"></stop>
        </linearGradient>
    </defs>
    <g id="交换系统" stroke="none" stroke-width="1" fill="none" fill-rule="evenodd">
        <g id="补充切图" transform="translate(-124.000000, -364.000000)">
            <g id="icon/缺省/暂无网络" transform="translate(124.973333, 364.250000)">
                <rect id="矩形" fill="#000000" opacity="0" x="0" y="0" width="90" height="90"></rect>
                <g id="编组-9" transform="translate(2.000000, 20.000000)">
                    <ellipse id="椭圆形备份-4" fill="#F7F7F7" cx="44" cy="60.5" rx="44" ry="5.5"></ellipse>
                    <g id="Artwork" transform="translate(2.000000, 0.000000)">
                        <g id="Mask" transform="translate(11.000000, 0.000000)" fill="#EFF1F3" fill-rule="nonzero">
                            <circle id="path-1" cx="30" cy="30" r="30"></circle>
                        </g>
                        <g id="Group-Clipped" transform="translate(11.000000, 0.000000)">
                            <mask id="mask-2" fill="white">
                                <use xlink:href="#path-1"></use>
                            </mask>
                            <use id="path-1" fill="#F6F6F6" xlink:href="#path-1"></use>
                            <path d="M48.1327171,13.5376555 C47.2784011,14.6337639 45.7238168,15.1632021 43.9477304,15.1632021 C41.6788947,15.1632021 39.7715153,14.299243 39.2236147,12.4937119 C39.1324089,12.499239 39.0404174,12.5020451 38.9477304,12.5020451 C36.6086421,12.5020451 34.7124363,10.7148842 34.7124363,8.51030954 C34.7124363,6.30573489 36.6086421,4.518574 38.9477304,4.518574 C38.9533442,4.518574 38.9589554,4.51858428 38.9645641,4.51860486 C39.1480386,2.63652989 40.8086451,1.1632021 42.8300834,1.1632021 C43.975204,1.1632021 45.0045306,1.63600586 45.7151299,2.38808224 C46.5831544,1.62725311 47.7383903,1.1632021 49.0065539,1.1632021 C51.703003,1.1632021 53.8889069,3.26117355 53.8889069,5.8491525 C53.8889069,5.97408826 53.8838126,6.09788206 53.8738126,6.22035297 C55.5495291,6.96266947 56.7124363,8.58961786 56.7124363,10.4772517 C56.7124363,13.0652306 54.5265325,15.1632021 51.8300834,15.1632021 C50.3523916,15.1632021 49.0280265,14.5331408 48.1327171,13.5376555 Z" id="Cloud" fill="#DCE0E7" fill-rule="nonzero" mask="url(#mask-2)" transform="translate(45.712436, 8.163202) scale(-1, 1) translate(-45.712436, -8.163202) "></path>
                            <g id="Group" mask="url(#mask-2)">
                                <g transform="translate(-39.100000, -6.900000)" id="编组">
                                    <g transform="translate(54.100000, 42.042857) scale(-1, 1) translate(-54.100000, -42.042857) translate(0.100000, 0.042857)">
                                        <g id="Mountain" transform="translate(0.000000, 0.025063)">
                                            <path d="M22.4562169,37.8195489 C28.6326665,37.7624973 38.6332614,43.6658976 42.5033211,44.8564263 C45.237525,45.6975372 50.585202,46.6975992 58.5463521,47.8566129 C35.3527821,55.1189496 19.910013,58.7250828 12.2180451,58.6750125 C4.5260772,58.6249419 1.0021698,54.244788 1.64632293,45.5345499 C11.5619143,40.4277726 18.4985456,37.8561057 22.4562169,37.8195489 Z" id="Rectangle" fill="#AEB8C2"></path>
                                            <path d="M3.25814535,49.0105572 C-2.212183,69.4238379 -0.672130263,79.6304784 7.8783036,79.6304784 C15.8871462,79.6304784 93.5105937,90.158595 107.008785,71.395434 C107.229388,71.0887845 107.453873,43.3468248 102.443609,44.7577818 C87.3421362,49.0105572 79.6190493,49.6737813 70.8547188,47.4932088 C62.090388,45.3126363 60.9710268,39.3248454 50.1038079,37.1389104 C41.0127996,35.3102592 35.4540417,40.788243 21.9757051,46.7110083 C18.3856747,48.28857 12.1464881,49.0550865 3.25814535,49.0105572 Z" id="Rectangle-Copy" fill="#DCE0E7"></path>
                                            <g id="Clouds" transform="translate(57.885592, 0.037594)" fill="url(#linearGradient-3)" fill-rule="nonzero">
                                                <path d="M8.37373918,8.12998588 C7.88120338,8.77243084 6.98494438,9.0827422 5.96098348,9.0827422 C4.65293938,9.0827422 3.55328458,8.57636326 3.23740558,7.51811542 C3.18482278,7.52135491 3.13178728,7.52299963 3.07835098,7.52299963 C1.72980448,7.52299963 0.636591584,6.47551882 0.636591584,5.18338576 C0.636591584,3.8912527 1.72980448,2.84377189 3.07835098,2.84377189 C3.08158738,2.84377189 3.08482228,2.84377793 3.08805598,2.84378998 C3.19383388,1.74067865 4.15121758,0.877139947 5.31663028,0.877139947 C5.97682288,0.877139947 6.57025678,1.15425706 6.97993618,1.59505989 C7.48037518,1.14912695 8.14639948,0.877139947 8.87752948,0.877139947 C10.4321037,0.877139947 11.6923353,2.10679133 11.6923353,3.62364316 C11.6923353,3.69686983 11.6893983,3.76942714 11.6836332,3.84120913 C12.649728,4.27629154 13.3201749,5.2298695 13.3201749,6.33623896 C13.3201749,7.8530908 12.0599433,9.0827422 10.5053691,9.0827422 C9.65344048,9.0827422 8.88990898,8.71345417 8.37373918,8.12998588 Z" id="Cloud-Copy" transform="translate(6.978383, 4.979941) rotate(-8.000000) translate(-6.978383, -4.979941) "></path>
                                            </g>
                                        </g>
                                    </g>
                                </g>
                            </g>
                        </g>
                        <path d="M11.6186284,23.4432748 C5.26034524,25.3023552 1.39231161,27.7602536 1.39231161,30.4553017 C1.39231161,36.2542916 19.3009216,40.9553017 41.3923116,40.9553017 C63.4837016,40.9553017 81.3923116,36.2542916 81.3923116,30.4553017 C81.3923116,27.7616752 77.5283577,25.3049483 71.1760547,23.4462173" id="路径" stroke="#D3D6DC" stroke-linecap="round" stroke-linejoin="round" transform="translate(41.392312, 32.199288) rotate(-13.000000) translate(-41.392312, -32.199288) "></path>
                        <circle id="椭圆形" stroke="#FFFFFF" fill="#C4CDD6" cx="7.5" cy="42.5" r="4"></circle>
                        <circle id="椭圆形备份-2" stroke="#FFFFFF" fill="#C4CDD6" cx="77" cy="26" r="4.5"></circle>
                    </g>
                </g>
            </g>
        </g>
    </g>
</svg>