<?xml version="1.0" encoding="UTF-8"?>
<svg width="91px" height="91px" viewBox="0 0 91 91" version="1.1" xmlns="http://www.w3.org/2000/svg" xmlns:xlink="http://www.w3.org/1999/xlink">
    <title>default_pic_xitong</title>
    <g id="交换系统" stroke="none" stroke-width="1" fill="none" fill-rule="evenodd">
        <g id="补充切图" transform="translate(-470.000000, -364.000000)">
            <g id="icon/缺省/系统维护" transform="translate(470.393333, 364.250000)">
                <rect id="矩形" stroke="#979797" fill="#D8D8D8" opacity="0" x="0.5" y="0.5" width="89" height="89"></rect>
                <g id="编组-3" transform="translate(2.000000, 24.000000)">
                    <ellipse id="椭圆形" fill="#F7F7F7" cx="44" cy="56.5" rx="44" ry="5.5"></ellipse>
                    <path d="M37,45 L49,45 C48.8381959,47.2066661 48.8699606,48.8733327 49.0952941,50 C49.2637263,50.8421612 49.8472373,51.9860341 50.845827,53.431619 C51.1597456,53.8860245 51.0458383,54.5088706 50.5914227,54.8227746 C50.424352,54.9381847 50.2261063,55 50.0230493,55 L36.1256836,55 C35.57342,54.9999617 35.1257219,54.5522636 35.1257219,54 C35.1257219,53.7796482 35.1985056,53.5654666 35.3327627,53.3907383 C36.4028494,51.9980786 37.024676,50.8678325 37.1982425,50 C37.4344086,48.8191695 37.3683278,47.1525028 37,45 Z" id="矩形" fill="#AEB8C2"></path>
                    <rect id="矩形" fill="#DCE0E7" x="11" y="0" width="65" height="46" rx="3"></rect>
                    <rect id="矩形" fill="#F6F6F6" x="11" y="37" width="65" height="1"></rect>
                </g>
                <circle id="椭圆形" fill="#F6F6F6" cx="45" cy="66" r="2"></circle>
                <rect id="矩形" fill="#F6F6F6" x="16" y="27" width="59" height="32" rx="2"></rect>
                <g id="编组-15" transform="translate(21.000000, 49.000000)">
                    <rect id="矩形备份-6" fill="#AEB8C2" x="5" y="0" width="44" height="2" rx="1"></rect>
                    <rect id="矩形" fill="#DCE0E7" x="0" y="0" width="24" height="2" rx="1"></rect>
                </g>
                <g id="火箭" transform="translate(45.000000, 27.000000) rotate(-45.000000) translate(-45.000000, -27.000000) translate(31.000000, 13.000000)">
                    <rect id="矩形" fill="#000000" fill-rule="nonzero" opacity="0" x="0" y="0" width="28" height="28"></rect>
                    <path d="M26.6018667,2.08366668 C26.5224051,1.74333298 26.256667,1.47759486 25.9163333,1.39813332 C20.9029333,0.2464 15.4340666,1.617 11.5374,5.51366668 C10.9882724,6.06352064 10.481725,6.6543106 10.0221333,7.28093332 C9.89193332,7.45826665 9.70573332,7.581 9.49246668,7.63373332 C7.45686668,8.13773332 5.49593335,9.20126665 3.86773332,10.8294667 C3.13915536,11.5568459 2.50467157,12.3727227 1.97913332,13.258 C1.53393332,14.0098 2.29693332,14.8964667 3.1164,14.5936 C4.40953332,14.1157333 5.80673332,13.881 7.24686668,13.8800667 C7.2268,14.0028 7.19786668,14.1241334 7.1806,14.2468667 C8.19120921,15.4231987 9.2455261,16.5612632 10.3413333,17.6586667 C11.4386272,18.7545878 12.5766961,19.8089088 13.7531333,20.8194 C13.8758666,20.8021333 13.9972,20.7732 14.1194667,20.7531333 C14.1185334,22.1932666 13.8838,23.5904666 13.4059333,24.8836 C13.1030666,25.7030667 13.9897333,26.4660667 14.7415333,26.0208667 C15.6269577,25.4953364 16.4429899,24.8608537 17.1705333,24.1322667 C18.7982666,22.5045334 19.8618,20.5431334 20.3658,18.508 C20.4185333,18.2947333 20.5417333,18.1085333 20.7186,17.9783333 C21.3452227,17.5187417 21.9360127,17.0121943 22.4858667,16.4630667 C26.383,12.5654667 27.7536,7.09706668 26.6018667,2.08366668 Z M20.3214667,12.0871333 C19.1039365,13.3046635 17.1299302,13.3046635 15.9124,12.0871333 C14.6948699,10.8696032 14.6948699,8.89559682 15.9124,7.67806668 C17.1299301,6.46053653 19.1039365,6.46053653 20.3214667,7.67806666 C21.5389968,8.8955968 21.5389968,10.8696032 20.3214667,12.0871333 L20.3214667,12.0871333 Z" id="形状" fill="#C4CDD6"></path>
                    <path d="M5.01713332,18.8533333 C4.07213332,19.7983333 0.0658,25.6536 1.20633332,26.7941333 C2.34686665,27.9346666 8.20213332,23.9278666 9.14713332,22.9833333 C10.0921333,22.0383333 9.93346665,20.3480666 8.79293332,19.208 C7.6524,18.067 5.96166665,17.9083333 5.01713332,18.8533333 L5.01713332,18.8533333 Z" id="路径" fill="#C4CDD6" fill-rule="nonzero"></path>
                </g>
            </g>
        </g>
    </g>
</svg>