<?xml version="1.0" encoding="UTF-8"?>
<svg width="15px" height="15px" viewBox="0 0 15 15" version="1.1" xmlns="http://www.w3.org/2000/svg" xmlns:xlink="http://www.w3.org/1999/xlink">
    <title>form_check_icon_4</title>
    <g id="交换系统" stroke="none" stroke-width="1" fill="none" fill-rule="evenodd">
        <g id="补充切图" transform="translate(-416.000000, -135.000000)" fill="#67C23A" fill-rule="nonzero">
            <g id="form_check_icon_4" transform="translate(416.973333, 135.250000)">
                <path d="M7,0 C10.8664062,0 14,3.13359375 14,7 C14,10.8664062 10.8664062,14 7,14 C3.13359375,14 0,10.8664062 0,7 C0,3.13359375 3.13359375,0 7,0 Z M10.1810922,4.62506313 C9.97606691,4.42003788 9.64827213,4.41542105 9.44894202,4.61475116 L9.44894202,4.61475116 L6.221,7.842 L4.67449811,6.2956029 C4.52262755,6.14373235 4.26499402,6.14874502 4.06562128,6.29572969 L3.99390783,6.35747475 C3.78888258,6.5625 3.76118161,6.86721065 3.93203599,7.03806502 L3.93203599,7.03806502 L5.78819129,8.89422032 C5.7978388,8.90386784 5.80791311,8.91288227 5.81837217,8.92126744 L5.85006313,8.95609217 C6.05508839,9.16111742 6.38288317,9.16573425 6.58221328,8.96640414 L6.58221328,8.96640414 L10.1914041,5.35721328 C10.3907342,5.15788317 10.3861174,4.83008839 10.1810922,4.62506313 Z" id="Shape"></path>
            </g>
        </g>
    </g>
</svg>