<?xml version="1.0" encoding="UTF-8"?>
<svg width="15px" height="15px" viewBox="0 0 15 15" version="1.1" xmlns="http://www.w3.org/2000/svg" xmlns:xlink="http://www.w3.org/1999/xlink">
    <title>form_check_icon_2</title>
    <g id="交换系统" stroke="none" stroke-width="1" fill="none" fill-rule="evenodd">
        <g id="补充切图" transform="translate(-502.000000, -135.000000)" fill="#0160C0" fill-rule="nonzero">
            <g id="form_check_icon_2" transform="translate(502.223333, 135.250000)">
                <path d="M7,0 C3.13359375,0 0,3.13359375 0,7 C0,10.8664062 3.13359375,14 7,14 C10.8664062,14 14,10.8664062 14,7 C14,3.13359375 10.8664062,0 7,0 Z M10.0214844,7.875 L7.4921875,7.875 L7.15495478,7.875 C6.61081416,7.875 6.5078125,7.69548966 6.5078125,7.15134903 L6.5078125,3.609375 C6.5078125,3.33730469 6.72792969,3.1171875 7,3.1171875 C7.27207031,3.1171875 7.4921875,3.33730469 7.4921875,3.609375 L7.4921875,6.890625 L10.0214844,6.890625 C10.2935547,6.890625 10.5136719,7.11074219 10.5136719,7.3828125 C10.5136719,7.65488281 10.2935547,7.875 10.0214844,7.875 Z" id="Shape"></path>
            </g>
        </g>
    </g>
</svg>