<?xml version="1.0" encoding="UTF-8"?>
<svg width="35px" height="34px" viewBox="0 0 35 34" version="1.1" xmlns="http://www.w3.org/2000/svg" xmlns:xlink="http://www.w3.org/1999/xlink">
    <title>form_opera_icon_spause</title>
    <g id="交换系统" stroke="none" stroke-width="1" fill="none" fill-rule="evenodd">
        <g id="补充切图" transform="translate(-234.000000, -121.000000)">
            <g id="pusac-icon" transform="translate(233.750000, 120.000000)">
                <circle id="椭圆形" stroke="#F56C6C" cx="18" cy="18" r="7.5"></circle>
                <g id="编组-3" transform="translate(15.000000, 14.500000)" fill="#F56C6C">
                    <path d="M1,0.25 C1.27614237,0.25 1.5,0.473857625 1.5,0.75 L1.5,6.25 C1.5,6.52614237 1.27614237,6.75 1,6.75 C0.723857625,6.75 0.5,6.52614237 0.5,6.25 L0.5,0.75 C0.5,0.473857625 0.723857625,0.25 1,0.25 Z M5,0.25 C5.27614237,0.25 5.5,0.473857625 5.5,0.75 L5.5,6.25 C5.5,6.52614237 5.27614237,6.75 5,6.75 C4.72385763,6.75 4.5,6.52614237 4.5,6.25 L4.5,0.75 C4.5,0.473857625 4.72385763,0.25 5,0.25 Z" id="形状结合"></path>
                </g>
            </g>
        </g>
    </g>
</svg>