<?xml version="1.0" encoding="UTF-8"?>
<svg width="35px" height="35px" viewBox="0 0 35 35" version="1.1" xmlns="http://www.w3.org/2000/svg" xmlns:xlink="http://www.w3.org/1999/xlink">
    <title>form_opera_icon_bound</title>
    <g id="交换系统" stroke="none" stroke-width="1" fill="none" fill-rule="evenodd" stroke-linecap="round">
        <g id="补充切图" transform="translate(-13.000000, -193.000000)" stroke="#0160C0">
            <g id="form_opera_icon_detail" transform="translate(12.500000, 192.500000)">
                <g id="编组-6" transform="translate(11.396331, 11.100000)">
                    <path d="M6.60366915,9 L5,9 C4.72385763,9 4.5,8.77614237 4.5,8.5 L4.5,0.5 C4.5,0.223857625 4.72385763,0 5,0 L13,0 C13.2761424,0 13.5,0.223857625 13.5,0.5 C13.5,2.42163687 13.5,3.86286452 13.5,4.82368295 C13.5,5.6406423 13.5,6.86608131 13.5,8.5 C13.5,8.77614237 13.2761424,9 13,9 L11.4163842,9" id="路径"></path>
                    <path d="M2.10366915,14 L0.5,14 C0.223857625,14 0,13.7761424 0,13.5 L0,5.5 C0,5.22385763 0.223857625,5 0.5,5 L8.5,5 C8.77614237,5 9,5.22385763 9,5.5 C9,7.42163687 9,8.86286452 9,9.82368295 C9,10.6406423 9,11.8660813 9,13.5 C9,13.7761424 8.77614237,14 8.5,14 L6.91638424,14" id="路径" transform="translate(4.500000, 9.500000) scale(1, -1) translate(-4.500000, -9.500000) "></path>
                </g>
            </g>
        </g>
    </g>
</svg>