<?xml version="1.0" encoding="UTF-8"?>
<svg width="33px" height="33px" viewBox="0 0 33 33" version="1.1" xmlns="http://www.w3.org/2000/svg" xmlns:xlink="http://www.w3.org/1999/xlink">
    <title>form_opera_icon_resetlock</title>
    <g id="交换系统" stroke="none" stroke-width="1" fill="none" fill-rule="evenodd">
        <g id="补充切图" transform="translate(-102.000000, -194.000000)">
            <g id="form_opera_icon_detail" transform="translate(101.333333, 193.500000)">
                <g id="编组-8" transform="translate(9.000000, 9.300000)">
                    <path d="M11.3740805,2.34834893 C11.1648138,2.1887977 10.9463963,2.04063555 10.7197526,1.90478721 C9.65676411,1.2676406 8.41282284,0.90136505 7.08333333,0.90136505 C3.17131636,0.90136505 0,4.07268141 0,7.98469838 C0,11.8967154 3.17131636,15.0680317 7.08333333,15.0680317 C10.9953503,15.0680317 14.1666667,11.8967154 14.1666667,7.98469838 C14.1666667,7.14058473 14.0190145,6.33095711 13.7481284,5.58023388" id="路径" stroke="#0160C0" stroke-linecap="round"></path>
                    <path d="M12.1056793,0.491376841 C12.3664805,0.491376841 12.5779016,0.702797931 12.5779016,0.963599063 L12.5779016,3.21915462 C12.5779016,3.47995575 12.3664805,3.69137684 12.1056793,3.69137684 L12.0939726,3.69037684 L9.84219483,3.69137684 C9.5813937,3.69137684 9.36997261,3.47995575 9.36997261,3.21915462 C9.36997261,2.95835349 9.5813937,2.7469324 9.84219483,2.7469324 L11.6329726,2.74637684 L11.6334571,0.963599063 C11.6334571,0.702797931 11.8448782,0.491376841 12.1056793,0.491376841 Z" id="形状结合" fill="#0160C0" transform="translate(10.973937, 2.091377) rotate(-371.000000) translate(-10.973937, -2.091377) "></path>
                    <g id="编组-7" transform="translate(4.092593, 4.117723)">
                        <g id="编组-5">
                            <rect id="矩形" stroke="#0160C0" stroke-linecap="round" x="0" y="3.02236641" width="6.04444444" height="4.28148148" rx="0.5"></rect>
                            <path d="M1.1390163,2.02129615 C1.21432259,1.04708346 2.0286941,0.280022819 3.02222222,0.280022819 C4.06542675,0.280022819 4.91111111,1.12570718 4.91111111,2.16891171 L4.91111111,2.16891171 L4.91111111,3.02236641 L1.13333333,3.02236641 L1.13333333,2.16891171 Z" id="形状结合" stroke="#0160C0" stroke-linecap="round"></path>
                            <path d="M2.6446399,4.67022948 L3.39980454,4.67022948 C3.6085534,4.67022948 3.77777778,4.83945386 3.77777778,5.04820272 C3.77777778,5.25695157 3.6085534,5.42617595 3.39980454,5.42617595 L2.6446399,5.42617595 C2.43589105,5.42617595 2.26666667,5.25695157 2.26666667,5.04820272 C2.26666667,4.83945386 2.43589105,4.67022948 2.6446399,4.67022948 Z" id="矩形" fill="#0160C0" transform="translate(3.022222, 5.048203) rotate(-90.000000) translate(-3.022222, -5.048203) "></path>
                        </g>
                        <g id="编组-10" transform="translate(3.022222, 5.289033) rotate(-90.000000) translate(-3.022222, -5.289033) translate(2.266667, 5.037181)"></g>
                    </g>
                </g>
            </g>
        </g>
    </g>
</svg>