<?xml version="1.0" encoding="UTF-8"?>
<svg width="34px" height="34px" viewBox="0 0 34 34" version="1.1" xmlns="http://www.w3.org/2000/svg" xmlns:xlink="http://www.w3.org/1999/xlink">
    <title>form_opera_icon_edit</title>
    <g id="交换系统" stroke="none" stroke-width="1" fill="none" fill-rule="evenodd">
        <g id="补充切图" transform="translate(-102.000000, -121.000000)">
            <g id="edit-icon" transform="translate(101.000000, 120.000000)">
                <g transform="translate(10.500000, 10.500000)">
                    <g transform="translate(0.937500, 0.000000)">
                        <path d="M13.3819647,6.76212768 C13.3819647,8.39338839 13.3819647,10.8402795 13.3819647,14.1028009 C13.3819647,14.3718885 13.1532051,14.5900272 12.8710158,14.5900272 L0.540115572,14.5900272 C0.257926284,14.5900272 0.0291666667,14.3718885 0.0291666667,14.1028009 L0.0291666667,1.72725344 C0.0291666667,1.45816579 0.257926284,1.24002716 0.540115572,1.24002716 C3.78921918,1.24002716 6.22604689,1.24002716 7.8505987,1.24002716" id="路径" stroke="#0160C0" stroke-linecap="round"></path>
                        <path d="M4.03125,4.8125 L14.59375,4.8125 C14.8526335,4.8125 15.0625,5.02236652 15.0625,5.28125 C15.0625,5.54013348 14.8526335,5.75 14.59375,5.75 L4.03125,5.75 C3.77236652,5.75 3.5625,5.54013348 3.5625,5.28125 C3.5625,5.02236652 3.77236652,4.8125 4.03125,4.8125 Z" id="矩形" fill="#0160C0" transform="translate(9.312500, 5.281250) rotate(-45.000000) translate(-9.312500, -5.281250) "></path>
                    </g>
                </g>
            </g>
        </g>
    </g>
</svg>