<?xml version="1.0" encoding="UTF-8"?>
<svg width="35px" height="35px" viewBox="0 0 35 35" version="1.1" xmlns="http://www.w3.org/2000/svg" xmlns:xlink="http://www.w3.org/1999/xlink">
    <title>form_opera_icon_download</title>
    <g id="交换系统" stroke="none" stroke-width="1" fill="none" fill-rule="evenodd">
        <g id="补充切图" transform="translate(-142.000000, -193.000000)" fill="#0160C0" fill-rule="nonzero">
            <g id="edit-icon" transform="translate(141.013333, 192.500000)">
                <g id="upload" transform="translate(10.000000, 10.500000)">
                    <path d="M14.5414697,8.16220404 C14.2458661,8.16220404 14.0059784,8.40169596 14.0059784,8.69681181 L14.0059784,13.7159551 C14.0059784,13.8905524 13.8635935,14.0342476 13.68716,14.0342476 L1.59815796,14.0342476 C1.42327209,14.0342476 1.27933948,13.8920976 1.27933948,13.7159551 L1.27933948,8.6952667 C1.27933948,8.40015085 1.03945179,8.16065893 0.743848243,8.16065893 C0.4482447,8.16065893 0.209904671,8.40169596 0.209904671,8.6952667 L0.209904671,14.139315 C0.209904671,14.6692875 0.641702516,15.0988278 1.1710031,15.0988278 L14.1158625,15.0988278 C14.6467107,15.0988278 15.0769609,14.6677424 15.0769609,14.139315 L15.0769609,8.6952667 C15.0769609,8.40169596 14.8370732,8.16220404 14.5414697,8.16220404 Z M7.64343279,0.143071126 C7.91957517,0.143071126 8.14343279,0.366928751 8.14343279,0.643071126 L8.14343279,10.9285484 C8.14343279,11.2046908 7.91957517,11.4285484 7.64343279,11.4285484 C7.36729042,11.4285484 7.14343279,11.2046908 7.14343279,10.9285484 L7.14343279,0.643071126 C7.14343279,0.366928751 7.36729042,0.143071126 7.64343279,0.143071126 Z M10.8254133,7.74065607 C11.0206755,7.93591822 11.0206755,8.25250071 10.8254133,8.44776285 L7.99698618,11.27619 C7.80172404,11.4714521 7.48514155,11.4714521 7.2898794,11.27619 C7.09461726,11.0809278 7.09461726,10.7643453 7.2898794,10.5690832 L10.1183065,7.74065607 C10.3135687,7.54539393 10.6301512,7.54539393 10.8254133,7.74065607 Z M7.99698618,11.27619 C7.80172404,11.4714521 7.48514155,11.4714521 7.2898794,11.27619 L4.46145228,8.44776285 C4.26619013,8.25250071 4.26619013,7.93591822 4.46145228,7.74065607 C4.65671442,7.54539393 4.97329691,7.54539393 5.16855906,7.74065607 L7.99698618,10.5690832 C8.19224833,10.7643453 8.19224833,11.0809278 7.99698618,11.27619 Z" id="Shape"></path>
                </g>
            </g>
        </g>
    </g>
</svg>