<?xml version="1.0" encoding="UTF-8"?>
<svg width="15px" height="14px" viewBox="0 0 15 14" version="1.1" xmlns="http://www.w3.org/2000/svg" xmlns:xlink="http://www.w3.org/1999/xlink">
    <title>form_check_icon_3</title>
    <g id="交换系统" stroke="none" stroke-width="1" fill="none" fill-rule="evenodd">
        <g id="补充切图" transform="translate(-582.000000, -134.000000)" fill="#F56C6C" fill-rule="nonzero">
            <g id="form_check_icon_3" transform="translate(582.390000, 134.000000)">
                <path d="M7,0 C3.13359375,0 0,3.13359375 0,7 C0,10.8664062 3.13359375,14 7,14 C10.8664062,14 14,10.8664062 14,7 C14,3.13359375 10.8664062,0 7,0 Z M9.80683594,9.11777344 C9.99824219,9.31054687 9.99824219,9.62226562 9.80546875,9.81367187 C9.70976562,9.909375 9.58398437,9.95722656 9.45820312,9.95722656 C9.33242187,9.95722656 9.20527344,9.909375 9.10957031,9.81230469 L7,7.69726562 L4.89042969,9.81230469 C4.79472656,9.909375 4.66757812,9.95722656 4.54179688,9.95722656 C4.41601562,9.95722656 4.29023438,9.909375 4.19453125,9.81367187 C4.00175781,9.62226562 4.00175781,9.31054688 4.19316406,9.11777344 L6.30546875,7 L4.19316406,4.88222656 C4.00175781,4.68945312 4.00175781,4.37773438 4.19453125,4.18632813 C4.38730469,3.99492188 4.69902344,3.99492188 4.89042969,4.18769531 L7,6.30273437 L9.10957031,4.18632813 C9.30097656,3.99355469 9.61269531,3.99355469 9.80546875,4.18496094 C9.99824219,4.37636719 9.99824219,4.68808594 9.80683594,4.88085937 L7.69453125,7 L9.80683594,9.11777344 Z" id="Shape"></path>
            </g>
        </g>
    </g>
</svg>