<?xml version="1.0" encoding="UTF-8"?>
<svg width="35px" height="35px" viewBox="0 0 35 35" version="1.1" xmlns="http://www.w3.org/2000/svg" xmlns:xlink="http://www.w3.org/1999/xlink">
    <title>form_opera_icon_lock</title>
    <g id="交换系统" stroke="none" stroke-width="1" fill="none" fill-rule="evenodd">
        <g id="补充切图" transform="translate(-294.000000, -193.000000)" stroke="#0160C0">
            <g id="form_opera_icon_detail" transform="translate(293.486667, 192.500000)">
                <g id="编组-16" transform="translate(10.000000, 10.700000)">
                    <circle id="椭圆形" stroke-linecap="round" cx="6.96428571" cy="3.75" r="3.75"></circle>
                    <path d="M6.96428571,7.47117869 C3.11801692,7.47117869 0,10.5891956 0,14.4354644" id="路径" stroke-linecap="round"></path>
                    <g id="编组-17" transform="translate(8.553912, 7.500000)" fill-rule="nonzero">
                        <path d="M3.99034343,6.95906433 L2.76350133,6.95906433 C2.53949618,6.95890653 2.35789918,6.77743773 2.3575832,6.55343275 L2.3575832,5.90067251 C2.15485765,5.81545912 1.96368211,5.70503117 1.78857735,5.572 L1.22255981,5.8985848 C1.0283563,6.01035801 0.780327061,5.94391539 0.668004251,5.75002924 L0.0544603912,4.68848538 C0.000629418541,4.59532196 -0.0139435487,4.48457567 0.0139537307,4.38065773 C0.0418510101,4.27673979 0.1099283,4.18818137 0.203179689,4.13450292 L0.768746941,3.80812281 C0.74137644,3.58998582 0.74137644,3.36928318 0.768746941,3.1511462 L0.203015947,2.8245614 C0.109759002,2.77085516 0.0416924974,2.68226226 0.0138247954,2.57831703 C-0.0140429065,2.47437181 0.000576820478,2.36361074 0.0544603912,2.27045614 L0.667840508,1.20895322 C0.780149359,1.01511455 1.02807673,0.948616205 1.22231419,1.06023392 L1.78861829,1.38702339 C1.96371945,1.25399781 2.15489604,1.14358302 2.35762413,1.05839181 L2.35762413,0.405631579 C2.35796258,0.181651908 2.53952149,0.000202869976 2.76350133,2.96355533e-13 L3.99034343,2.96355533e-13 C4.21434858,0.000157797535 4.39594558,0.181626596 4.39626156,0.405631579 L4.39626156,1.05839181 C4.5989819,1.14359865 4.79015659,1.25401235 4.96526741,1.38702339 L5.53128495,1.06047953 C5.72549794,0.948778698 5.97347331,1.01520688 6.08584051,1.20903509 L6.69922063,2.27057895 C6.75306517,2.3637225 6.76766306,2.47445384 6.73979713,2.57836942 C6.7119312,2.682285 6.64388866,2.77085554 6.55066507,2.8245614 L5.98509782,3.15085965 C6.01249574,3.36899492 6.01249574,3.58970099 5.98509782,3.80783626 L6.55082881,4.13450292 C6.64405935,4.18820194 6.71211058,4.27676944 6.73998435,4.38068561 C6.76785811,4.48460178 6.75326646,4.59533686 6.6994253,4.68848538 L6.08600425,5.75019298 C5.97362789,5.94390841 5.72577809,6.01030427 5.53161244,5.8987076 L4.96547209,5.57208187 C4.79029919,5.70512137 4.59905491,5.81554929 4.39626156,5.90075439 L4.39626156,6.55351462 C4.39590048,6.77748762 4.21431667,6.95890662 3.99034343,6.95906433 Z" id="形状"></path>
                        <path d="M3.37781264,2.65301189 C3.60794169,2.65305426 3.81627324,2.74635961 3.96707252,2.89718663 C4.11787175,3.04801361 4.21113875,3.25636223 4.21113927,3.48577105 C4.21080754,3.71608142 4.11729759,3.92452914 3.96629293,4.0754504 C3.81528828,4.22637166 3.60678893,4.31976646 3.37719867,4.31997084 C3.14706966,4.31984367 2.93877255,4.22646158 2.78802887,4.07557903 C2.63728517,3.92469646 2.54409492,3.71631342 2.54417965,3.4861845 C2.54426445,3.25605546 2.63760818,3.04774112 2.78846299,2.89696964 C2.93931778,2.74619816 3.14768363,2.65296953 3.37781267,2.65301189 Z" id="形状"></path>
                    </g>
                </g>
            </g>
        </g>
    </g>
</svg>