<?xml version="1.0" encoding="UTF-8"?>
<svg width="15px" height="15px" viewBox="0 0 15 15" version="1.1" xmlns="http://www.w3.org/2000/svg" xmlns:xlink="http://www.w3.org/1999/xlink">
    <title>form_check_icon_1</title>
    <g id="交换系统" stroke="none" stroke-width="1" fill="none" fill-rule="evenodd">
        <g id="补充切图" transform="translate(-416.000000, -167.000000)" fill="#909399" fill-rule="nonzero">
            <g id="form_check_icon_1" transform="translate(416.973333, 167.750000)">
                <path d="M7,0 C10.8664062,0 14,3.13359375 14,7 C14,10.8664062 10.8664062,14 7,14 C3.13359375,14 0,10.8664062 0,7 C0,3.13359375 3.13359375,0 7,0 Z M6.96214879,3.3597897 C6.63036586,3.3597897 6.2,3.54633772 6.2,3.77645637 L6.2,3.77645637 L6.36140265,7.94312304 C6.36140265,8.17324168 6.63036586,8.3597897 6.96214879,8.3597897 C7.29393173,8.3597897 7.56289494,8.17324168 7.56289494,7.94312304 L7.56289494,7.94312304 L7.7,3.77645637 C7.7,3.54633772 7.29393173,3.3597897 6.96214879,3.3597897 Z M7,10.6960025 C7.4418278,10.6960025 7.8,10.3378303 7.8,9.89600254 C7.8,9.45417474 7.4418278,9.09600254 7,9.09600254 C6.5581722,9.09600254 6.2,9.45417474 6.2,9.89600254 C6.2,10.3378303 6.5581722,10.6960025 7,10.6960025 Z" id="Shape"></path>
            </g>
        </g>
    </g>
</svg>