<?xml version="1.0" encoding="UTF-8"?>
<svg width="34px" height="34px" viewBox="0 0 34 34" version="1.1" xmlns="http://www.w3.org/2000/svg" xmlns:xlink="http://www.w3.org/1999/xlink">
    <title>form_opera_icon_shenpi</title>
    <g id="交换系统" stroke="none" stroke-width="1" fill="none" fill-rule="evenodd">
        <g id="补充切图" transform="translate(-145.000000, -121.000000)" stroke="#0160C0">
            <g id="stop-icon" transform="translate(144.000000, 120.000000)">
                <rect id="矩形" x="11" y="20.5" width="14" height="5" rx="1"></rect>
                <path d="M18,10.5 C18.9664983,10.5 19.8414983,10.8917508 20.4748737,11.5251263 C21.1082492,12.1585017 21.5,13.0335017 21.5,14 C21.5,14.6735665 21.309875,15.302758 20.9800602,15.8366115 C20.5519891,16.5295075 19.8891587,17.0620515 19.1024173,17.323025 L19.1024173,17.323025 L20.6909685,20.5 L15.3090315,20.5 L16.8975827,17.323025 C16.1108413,17.0620515 15.4480109,16.5295075 15.0199398,15.8366115 C14.690125,15.302758 14.5,14.6735665 14.5,14 C14.5,13.0335017 14.8917508,12.1585017 15.5251263,11.5251263 C16.1585017,10.8917508 17.0335017,10.5 18,10.5 Z" id="形状结合"></path>
            </g>
        </g>
    </g>
</svg>