<?xml version="1.0" encoding="UTF-8"?>
<svg width="9px" height="11px" viewBox="0 0 9 11" version="1.1" xmlns="http://www.w3.org/2000/svg" xmlns:xlink="http://www.w3.org/1999/xlink">
    <title>page_icon_close_white</title>
    <g id="交换系统" stroke="none" stroke-width="1" fill="none" fill-rule="evenodd">
        <g id="补充切图" transform="translate(-231.000000, -33.000000)" fill="#FFFFFF">
            <g id="编组-2" transform="translate(231.100000, 33.500000)">
                <path d="M0.94398959,1.1623061 L4,4.219 L7.05601041,1.1623061 C7.24806494,0.970251564 7.55104462,0.953768533 7.7631712,1.09964549 L7.83806584,1.16193416 C8.05392177,1.3777901 8.0541583,1.72752519 7.8376939,1.94398959 L4.781,5 L7.8376939,8.05601041 C8.02974844,8.24806494 8.04623147,8.55104462 7.90035451,8.7631712 L7.83806584,8.83806584 C7.6222099,9.05392177 7.27247481,9.0541583 7.05601041,8.8376939 L4,5.781 L0.94398959,8.8376939 C0.751935058,9.02974844 0.448955376,9.04623147 0.236828795,8.90035451 L0.161934165,8.83806584 C-0.0539217718,8.6222099 -0.0541583046,8.27247481 0.162306096,8.05601041 L3.219,5 L0.162306096,1.94398959 C-0.0297484359,1.75193506 -0.0462314672,1.44895538 0.0996454864,1.2368288 L0.161934165,1.16193416 C0.377790101,0.946078228 0.727525189,0.945841695 0.94398959,1.1623061 Z" id="page_icon_close_black"></path>
            </g>
        </g>
    </g>
</svg>