<?xml version="1.0" encoding="UTF-8"?>
<svg width="15px" height="14px" viewBox="0 0 15 14" version="1.1" xmlns="http://www.w3.org/2000/svg" xmlns:xlink="http://www.w3.org/1999/xlink">
    <title>popup_icon_up_wenj</title>
    <g id="交换系统" stroke="none" stroke-width="1" fill="none" fill-rule="evenodd">
        <g id="文件数据上传" transform="translate(-1300.000000, -172.000000)" fill="#FFFFFF" fill-rule="nonzero">
            <g id="弹框/表格表单嵌套/表单嵌套" transform="translate(821.000000, 74.000000)">
                <g id="输入框/常规备份" transform="translate(24.000000, 89.000000)">
                    <g id="编组-10" transform="translate(443.000000, 0.000000)">
                        <g id="popup_icon_up_wenj" transform="translate(11.500000, 8.500000)">
                            <path d="M7.70437117,3.31288344 C7.82898773,3.73657975 8.22776074,4.0107362 8.65145706,4.0107362 L12.6890337,4.0107362 C12.6890337,3.46242331 12.2404141,3.01380368 11.6921012,3.01380368 L7.60467791,3.01380368 L7.70437117,3.31288344 Z M7.30559816,2.01687117 L11.6921012,2.01687117 C12.788727,2.01687117 13.6859663,2.91411043 13.6859663,4.0107362 L13.6859663,4.4095092 C14.1595092,4.7833589 14.4835123,5.35659509 14.4835123,6.00460123 L14.4835123,11.9861963 C14.4835123,13.0828221 13.586273,13.9800613 12.4896472,13.9800613 L2.99386503,13.9800613 C1.89723926,13.9800613 1,13.0828221 1,11.9861963 L1,3.01380368 C1,1.91717791 1.89723926,1.01993865 2.99386503,1.01993865 L5.56096626,1.01993865 C6.28374233,1.01993865 6.95667178,1.41871166 7.30559816,2.01687117 Z M5.56096626,2.01687117 L2.99386503,2.01687117 C2.44555215,2.01687117 1.99693252,2.4654908 1.99693252,3.01380368 L1.99693252,11.9861963 C1.99693252,12.5345092 2.44555215,12.9831288 2.99386503,12.9831288 L12.4647239,12.9831288 C13.0130368,12.9831288 13.4616564,12.5345092 13.4616564,11.9861963 L13.4616564,6.00460123 C13.4616564,5.45628834 13.0130368,5.00766871 12.4647239,5.00766871 L8.70130368,5.00766871 C7.82898773,5.00766871 7.05636503,4.43443252 6.8071319,3.61196319 L6.50805215,2.71472393 C6.38343558,2.29102761 6.00958589,2.01687117 5.56096626,2.01687117 Z M3.99079755,10.4907975 L7.97852761,10.4907975 C8.25268405,10.4907975 8.47699387,10.7151074 8.47699387,10.9892638 C8.47699387,11.2634202 8.25268405,11.4877301 7.97852761,11.4877301 L3.99079755,11.4877301 C3.7166411,11.4877301 3.49233129,11.2634202 3.49233129,10.9892638 C3.49233129,10.7151074 3.7166411,10.4907975 3.99079755,10.4907975 Z" id="形状"></path>
                        </g>
                    </g>
                </g>
            </g>
        </g>
    </g>
</svg>